<svg width="34" height="30" viewBox="0 0 34 30" fill="none" xmlns="http://www.w3.org/2000/svg">
<path fill-rule="evenodd" clip-rule="evenodd" d="M28.805 27.9833V27.98L28.835 27.9083L33.8333 2.70831V2.62831C33.8333 1.99997 33.6 1.45164 33.0967 1.12331C32.655 0.834974 32.1467 0.814974 31.79 0.841641C31.458 0.871667 31.1304 0.938751 30.8133 1.04164C30.6781 1.08523 30.5447 1.13416 30.4133 1.18831L30.3917 1.19664L2.52499 12.1283L2.51666 12.1316C2.43194 12.1606 2.34901 12.1945 2.26833 12.2333C2.07014 12.3223 1.87999 12.4283 1.69999 12.55C1.34166 12.7966 0.659992 13.3766 0.774992 14.2966C0.869992 15.06 1.39499 15.5433 1.74999 15.795C1.95953 15.9418 2.18482 16.0648 2.42166 16.1616L2.47499 16.185L2.49166 16.19L2.50333 16.195L7.37999 17.8366C7.36333 18.1416 7.39333 18.4533 7.47499 18.7616L9.91666 28.0266C10.05 28.5317 10.3383 28.9822 10.7409 29.3151C11.1435 29.6479 11.6402 29.8462 12.1613 29.8823C12.6824 29.9183 13.2017 29.7902 13.6463 29.516C14.0908 29.2418 14.4384 28.8352 14.64 28.3533L18.4533 24.2766L25.0017 29.2966L25.095 29.3366C25.69 29.5966 26.245 29.6783 26.7533 29.61C27.2617 29.54 27.665 29.3266 27.9683 29.085C28.3192 28.8005 28.5988 28.4381 28.785 28.0266L28.7983 27.9983L28.8033 27.9883L28.805 27.9833ZM9.89166 18.125C9.86462 18.0222 9.87105 17.9134 9.91001 17.8145C9.94897 17.7156 10.0184 17.6317 10.1083 17.575L26.6433 7.07497C26.6433 7.07497 27.6167 6.48331 27.5817 7.07497C27.5817 7.07497 27.755 7.17831 27.2333 7.66331C26.74 8.12497 15.4483 19.0266 14.305 20.13C14.2414 20.1917 14.1969 20.2704 14.1767 20.3566L12.3333 27.39L9.89166 18.1233V18.125Z" fill="black"/>
</svg>
