<svg width="36" height="29" viewBox="0 0 36 29" fill="none" xmlns="http://www.w3.org/2000/svg">
<path d="M35.4333 4.00008C34.15 4.58341 32.7666 4.96675 31.3333 5.15008C32.8 4.26675 33.9333 2.86675 34.4666 1.18341C33.0833 2.01675 31.55 2.60008 29.9333 2.93341C28.6166 1.50008 26.7666 0.666748 24.6666 0.666748C20.75 0.666748 17.55 3.86675 17.55 7.81675C17.55 8.38341 17.6166 8.93342 17.7333 9.45008C11.8 9.15008 6.51665 6.30008 2.99998 1.98341C2.38332 3.03341 2.03332 4.26675 2.03332 5.56675C2.03332 8.05008 3.28332 10.2501 5.21665 11.5001C4.03332 11.5001 2.93332 11.1667 1.96665 10.6667V10.7167C1.96665 14.1834 4.43332 17.0834 7.69998 17.7334C6.6512 18.0204 5.55014 18.0604 4.48332 17.8501C4.93599 19.2709 5.82254 20.5141 7.01834 21.405C8.21414 22.2958 9.65906 22.7896 11.15 22.8167C8.6227 24.8175 5.48998 25.8989 2.26665 25.8834C1.69998 25.8834 1.13332 25.8501 0.56665 25.7834C3.73332 27.8167 7.49998 29.0001 11.5333 29.0001C24.6666 29.0001 31.8833 18.1001 31.8833 8.65008C31.8833 8.33341 31.8833 8.03341 31.8666 7.71675C33.2666 6.71675 34.4666 5.45008 35.4333 4.00008Z" fill="black"/>
</svg>
