<svg width="39" height="24" viewBox="0 0 39 24" fill="none" xmlns="http://www.w3.org/2000/svg">
<path fill-rule="evenodd" clip-rule="evenodd" d="M34.6039 16.5959C34.6039 16.5959 37.8379 19.7899 38.6379 21.2679C38.6535 21.2892 38.6656 21.3129 38.6739 21.3379C38.9999 21.8839 39.0799 22.3119 38.9199 22.6279C38.6499 23.1499 37.7359 23.4119 37.4259 23.4339H31.7099C31.3119 23.4339 30.4839 23.3299 29.4759 22.6339C28.7059 22.0959 27.9399 21.2099 27.1979 20.3439C26.0899 19.0579 25.1319 17.9419 24.1619 17.9419C24.0394 17.9417 23.9177 17.9619 23.8019 18.0019C23.0679 18.2339 22.1359 19.2799 22.1359 22.0659C22.1359 22.9379 21.4479 23.4339 20.9659 23.4339H18.3479C17.4559 23.4339 12.8119 23.1219 8.69394 18.7799C3.64794 13.4639 -0.884064 2.79992 -0.928064 2.70592C-1.21006 2.01592 -0.618064 1.63992 0.0219359 1.63992H5.79394C6.56794 1.63992 6.81994 2.10792 6.99594 2.52792C7.19994 3.00992 7.95594 4.93792 9.19594 7.10392C11.2039 10.6279 12.4379 12.0619 13.4239 12.0619C13.6092 12.0625 13.7913 12.0142 13.9519 11.9219C15.2399 11.2139 14.9999 6.61392 14.9399 5.66592C14.9399 5.48192 14.9379 3.61192 14.2779 2.70792C13.8059 2.05992 13.0019 1.80792 12.5159 1.71592C12.6459 1.52792 12.9219 1.23992 13.2759 1.06992C14.1579 0.629918 15.7519 0.565918 17.3339 0.565918H18.2119C19.9279 0.589918 20.3719 0.699918 20.9959 0.857918C22.2519 1.15792 22.2759 1.97192 22.1659 4.74392C22.1339 5.53592 22.0999 6.42792 22.0999 7.47792C22.0999 7.70192 22.0899 7.95192 22.0899 8.20592C22.0519 9.62792 22.0019 11.2299 23.0059 11.8879C23.1362 11.969 23.2865 12.012 23.4399 12.0119C23.7879 12.0119 24.8299 12.0119 27.6559 7.16192C28.8959 5.01992 29.8559 2.49392 29.9219 2.30392C29.9779 2.19792 30.1459 1.89992 30.3499 1.77992C30.4951 1.70271 30.6576 1.66414 30.8219 1.66792H37.6119C38.3519 1.66792 38.8539 1.77992 38.9519 2.05992C39.1159 2.51392 38.9199 3.89992 35.8199 8.09192C35.2979 8.78992 34.8399 9.39392 34.4379 9.92192C31.6279 13.6099 31.6279 13.7959 34.6039 16.5959Z" fill="black"/>
</svg>
