<svg width="34" height="34" viewBox="0 0 34 34" fill="none" xmlns="http://www.w3.org/2000/svg">
<path d="M16.6667 0C25.8717 0 33.3334 7.46167 33.3334 16.6667C33.3334 25.8717 25.8717 33.3333 16.6667 33.3333C13.7213 33.3381 10.8278 32.5586 8.28336 31.075L0.00669011 33.3333L2.26002 25.0533C0.775179 22.5081 -0.0048973 19.6133 2.31337e-05 16.6667C2.31337e-05 7.46167 7.46169 0 16.6667 0ZM10.9867 8.83333L10.6534 8.84667C10.4376 8.85981 10.2267 8.9165 10.0334 9.01333C9.85256 9.11572 9.68752 9.24371 9.54336 9.39333C9.34336 9.58167 9.23002 9.745 9.10836 9.90333C8.49189 10.7048 8.15998 11.6889 8.16502 12.7C8.16836 13.5167 8.38169 14.3117 8.71502 15.055C9.39669 16.5583 10.5184 18.15 11.9984 19.625C12.355 19.98 12.705 20.3367 13.0817 20.6683C14.9207 22.2874 17.1121 23.4551 19.4817 24.0783L20.4284 24.2233C20.7367 24.24 21.045 24.2167 21.355 24.2017C21.8404 24.1766 22.3144 24.0452 22.7434 23.8167C22.9616 23.7042 23.1746 23.5819 23.3817 23.45C23.3817 23.45 23.4534 23.4033 23.59 23.3C23.815 23.1333 23.9534 23.015 24.14 22.82C24.2784 22.6767 24.3984 22.5083 24.49 22.3167C24.62 22.045 24.75 21.5267 24.8034 21.095C24.8434 20.765 24.8317 20.585 24.8267 20.4733C24.82 20.295 24.6717 20.11 24.51 20.0317L23.54 19.5967C23.54 19.5967 22.09 18.965 21.2034 18.5617C21.1106 18.5212 21.0112 18.498 20.91 18.4933C20.796 18.4816 20.6808 18.4945 20.5721 18.531C20.4634 18.5675 20.3639 18.6268 20.28 18.705C20.2717 18.7017 20.16 18.7967 18.955 20.2567C18.8859 20.3496 18.7906 20.4198 18.6814 20.4584C18.5721 20.497 18.4539 20.5022 18.3417 20.4733C18.2331 20.4442 18.1267 20.4075 18.0234 20.3633C17.8167 20.2767 17.745 20.2433 17.6034 20.1833C16.6468 19.7659 15.7612 19.2019 14.9784 18.5117C14.7684 18.3283 14.5734 18.1283 14.3734 17.935C13.7177 17.3071 13.1462 16.5967 12.6734 15.8217L12.575 15.6633C12.5044 15.5569 12.4473 15.4422 12.405 15.3217C12.3417 15.0767 12.5067 14.88 12.5067 14.88C12.5067 14.88 12.9117 14.4367 13.1 14.1967C13.2834 13.9633 13.4384 13.7367 13.5384 13.575C13.735 13.2583 13.7967 12.9333 13.6934 12.6817C13.2267 11.5417 12.7434 10.4067 12.2467 9.28C12.1484 9.05667 11.8567 8.89667 11.5917 8.865C11.5017 8.855 11.4117 8.845 11.3217 8.83833C11.0979 8.82721 10.8736 8.82944 10.65 8.845L10.985 8.83167L10.9867 8.83333Z" fill="black"/>
</svg>
